<?xml version="1.0" standalone="no"?>
<!DOCTYPE svg PUBLIC "-//W3C//DTD SVG 1.0//EN" "http://www.w3.org/TR/2001/REC-SVG-20010904/DTD/svg10.dtd">
<svg xmlns="http://www.w3.org/2000/svg" xmlns:xlink="http://www.w3.org/1999/xlink" id="body_1" width="16" height="11">

<defs>
    <clipPath  id="1">

    <path id=""  clip-rule="evenodd" transform="matrix(1 0 0 1 0 0)"  d="M12 -0.25L12 8L12 8L0 8L0 8L0 -0.25L0 -0.25L12 -0.25z" />    </clipPath>
</defs>

<g transform="matrix(1.3333 0 0 1.3333 0 0)">
	<g clip-path="url(#1)" >
    <path id=""  transform="matrix(1 0 0 -1 0 8)"  d="M10.59 7.9099503L10.59 7.9099503L10.59 7.9099503L6 3.32997L6 3.32997L1.4099998 7.9099503L1.4099998 7.9099503L0 6.4999723L0 6.4999723L6 0.49997252L6 0.49997252L12 6.4999723L12 6.4999723L10.59 7.9099503z" stroke="#FFFFFF" stroke-width="1" fill="#FFFFFF" fill-rule="nonzero" />
	</g>
</g>
</svg>